<svg width="51" height="51" viewBox="0 0 51 51" fill="none" xmlns="http://www.w3.org/2000/svg">
<path d="M37.5415 8.35775L37.4415 8.30775C37.1915 8.20775 36.9415 8.35775 36.8415 8.60775L36.3415 10.2578C36.2915 10.4578 36.3415 10.6578 36.4915 10.7578C38.7915 12.4578 40.2415 15.1078 40.5415 17.9578C40.5415 18.1578 40.6915 18.3078 40.8415 18.3578L42.4915 18.8578C42.6415 18.9078 42.7915 18.8578 42.8915 18.7578C42.9915 18.6578 43.0915 18.5078 43.0915 18.3578C42.9915 14.3578 40.8915 10.6078 37.5415 8.35775Z" fill="white"/>
<path d="M39.3915 3.75773C39.1415 3.65773 38.8915 3.80773 38.7915 4.05773L38.2915 5.65773C38.2415 5.85773 38.2915 6.05773 38.4915 6.15773C42.8915 8.80773 45.4915 13.6077 45.3915 18.7077C45.3915 18.9077 45.5415 19.1077 45.6915 19.1577L47.2915 19.6577C47.4415 19.7077 47.5915 19.6577 47.6915 19.6077C47.7915 19.5077 47.8915 19.4077 47.8915 19.2577C48.2915 13.0077 44.9915 6.90773 39.4915 3.80773L39.3915 3.75773Z" fill="white"/>
<path d="M19.8915 3.70773C21.3415 8.80773 23.6915 14.0577 26.9915 19.1577C30.2915 24.2577 34.0915 28.5577 38.0915 32.0077C36.6415 26.9077 34.2915 21.6577 30.9915 16.5577C27.6915 11.4577 23.8915 7.15773 19.8915 3.70773Z" stroke="white" stroke-width="2" stroke-miterlimit="10" stroke-linejoin="bevel"/>
<path d="M26.9915 19.1577C23.6915 14.0577 21.3415 8.80775 19.8915 3.70775L19.8415 3.65775C19.3415 3.90775 18.7915 4.15775 18.2915 4.45775C19.7415 9.70775 22.0415 15.0077 25.2915 20.0077C28.5915 25.1077 32.5415 29.5077 36.8915 33.0077C37.3415 32.7077 37.7415 32.3577 38.1415 32.0077V31.9577C34.0915 28.5577 30.2915 24.2577 26.9915 19.1577Z" fill="white"/>
<path d="M2.99152 47.4077L26.7915 47.4577V47.4077C26.7915 45.5577 24.2915 44.0577 21.2415 44.0577H16.0415L15.6915 42.5577H10.0915V44.0577H8.54152C5.49152 44.0577 2.99152 45.5577 2.99152 47.4077Z" fill="white"/>
<path d="M15.1915 31.9078C20.7915 37.0578 29.2915 37.9578 35.9415 33.6578L36.0415 33.6078C31.7915 30.1078 27.9415 25.8078 24.6915 20.7578C21.3915 15.6578 19.0415 10.2578 17.6415 4.85776L17.4915 4.95776C10.3415 9.55776 7.79151 18.6578 11.1415 26.2078C10.7415 26.3078 10.2915 26.4578 9.94151 26.7078C8.19151 27.8578 7.64151 30.2078 8.79151 32.0078C9.14151 32.5578 9.59151 32.9578 10.0915 33.2578V39.3578H14.9415L13.4915 33.4078C13.6915 33.3078 13.8415 33.2578 13.9915 33.1078C14.4915 32.8078 14.8915 32.4078 15.1915 31.9078Z" fill="white"/>
<path d="M10.0915 40.6578H15.2415L14.9415 39.3578H10.0415L10.0915 40.6578Z" fill="white"/>
<path d="M10.0915 40.6577V42.5577H15.6915L15.2415 40.6577H10.0915Z" fill="white"/>
</svg>
