<svg width="51" height="51" viewBox="0 0 51 51" fill="none" xmlns="http://www.w3.org/2000/svg">
<g clip-path="url(#clip0_33_264)">
<path d="M10.415 41.8077C13.865 45.3577 18.365 47.7077 23.165 48.5077C20.015 45.7577 17.515 42.4577 15.715 38.7077C13.815 39.6077 12.065 40.6077 10.415 41.8077Z" fill="white"/>
<path d="M4.21509 30.0077C4.96509 33.8577 6.66509 37.4577 9.21509 40.5077C11.0151 39.1577 12.9651 38.0577 15.0151 37.1577C13.7651 34.0077 13.0151 30.7077 12.8151 27.3077H7.36509C7.06509 28.7577 5.76509 29.9077 4.21509 30.0077Z" fill="white"/>
<path d="M26.215 34.5578V27.2578H14.615C14.815 30.4578 15.465 33.5578 16.665 36.4578C19.715 35.3578 22.915 34.7078 26.215 34.5578Z" fill="white"/>
<path d="M26.215 48.7577V36.3577C23.165 36.5077 20.215 37.0577 17.365 38.1077C19.365 42.2577 22.415 45.9077 26.215 48.7577Z" fill="white"/>
<path d="M12.815 12.3577C13.465 11.6577 14.365 11.2577 15.365 11.2577C15.665 11.2577 15.965 11.3077 16.265 11.3577C17.965 8.05774 20.315 5.05774 23.165 2.55774C17.915 3.45774 13.165 6.10774 9.61499 10.1577C10.615 10.9577 11.665 11.7077 12.815 12.3577Z" fill="white"/>
<path d="M15.4651 18.3077C14.8651 20.6577 14.5651 23.0577 14.5651 25.5077H26.2151V18.1077C23.5151 18.0077 20.8651 17.5577 18.3151 16.7077C17.6651 17.6577 16.6151 18.2577 15.4651 18.3077Z" fill="white"/>
<path d="M8.46504 11.5078C5.91504 14.9078 4.36504 18.8078 3.91504 22.9578C3.91504 22.9578 3.91504 22.9578 3.96504 22.9578C5.56504 22.9578 6.91504 24.0078 7.31504 25.5078H12.765C12.765 22.9078 13.065 20.3578 13.715 17.9078C12.565 17.3078 11.815 16.1578 11.815 14.8078C11.815 14.5078 11.865 14.2078 11.915 13.9078C10.715 13.2078 9.56504 12.4078 8.46504 11.5078Z" fill="white"/>
<path d="M37.515 40.6577C37.415 40.6577 37.315 40.6577 37.215 40.6077C35.515 43.6077 33.365 46.3077 30.665 48.6077C35.765 47.8077 40.465 45.3078 44.065 41.5078C42.865 40.6578 41.615 39.9078 40.265 39.2578C39.615 40.1078 38.665 40.6577 37.515 40.6577Z" fill="white"/>
<path d="M45.265 40.2078C48.265 36.5078 50.015 32.0078 50.365 27.2578H41.115C40.965 29.7078 40.565 32.1578 39.865 34.4578C40.615 35.1078 41.065 36.0577 41.065 37.1077C41.065 37.3077 41.015 37.5077 41.015 37.6577C42.465 38.4077 43.915 39.2078 45.265 40.2078Z" fill="white"/>
<path d="M39.515 15.6577C40.565 18.8077 41.115 22.1077 41.115 25.5077H50.415C50.415 20.6077 48.865 15.9077 45.965 11.9077C43.965 13.4077 41.815 14.6577 39.515 15.6577Z" fill="white"/>
<path d="M26.2151 16.3577V2.35773C22.6651 5.00773 19.8151 8.35773 17.8151 12.2077C18.5151 12.8577 18.9151 13.7577 18.9151 14.7577C18.9151 14.8577 18.9151 14.9577 18.8651 15.0577C21.2151 15.8077 23.7151 16.2577 26.2151 16.3577Z" fill="white"/>
<path d="M27.9651 16.3577C31.1651 16.3077 34.2651 15.7077 37.2651 14.6577C35.3651 9.90774 32.1651 5.75774 27.9651 2.55774V16.3577Z" fill="white"/>
<path d="M38.9151 14.0078C41.0151 13.1078 43.0651 11.9078 44.9151 10.5078C41.2651 6.20775 36.2651 3.40775 30.7151 2.50775C34.3151 5.65775 37.1151 9.60775 38.9151 14.0078Z" fill="white"/>
<path d="M27.9651 25.5077H39.3651C39.3651 22.3577 38.8651 19.2577 37.8651 16.3077C34.6651 17.4577 31.3651 18.0577 27.9651 18.1077C27.9651 18.1077 27.9651 25.5077 27.9651 25.5077Z" fill="white"/>
<path d="M27.9651 36.3077V48.5577C31.0651 46.2077 33.6151 43.3077 35.5151 40.0577C34.6151 39.4077 33.9651 38.3577 33.9651 37.1577V37.1077C32.0151 36.6077 30.0151 36.3577 27.9651 36.3077Z" fill="white"/>
<path d="M34.4651 35.3577C35.0651 34.3077 36.2151 33.5577 37.5151 33.5577C37.7651 33.5577 38.0151 33.5577 38.2151 33.6077C38.8151 31.5577 39.1651 29.4077 39.3151 27.2077H27.9651V34.5577C30.1651 34.6077 32.3651 34.8577 34.4651 35.3577Z" fill="white"/>
</g>
<defs>
<clipPath id="clip0_33_264">
<rect width="50" height="50" fill="white" transform="translate(0.415039 0.557739)"/>
</clipPath>
</defs>
</svg>
