<svg width="24" height="24" viewBox="0 0 24 24" fill="none" xmlns="http://www.w3.org/2000/svg">
<g clip-path="url(#clip0_501_505)">
<mask id="mask0_501_505" style="mask-type:luminance" maskUnits="userSpaceOnUse" x="0" y="0" width="24" height="24">
<path d="M24 0V24H0V0H24Z" fill="white"/>
</mask>
<g mask="url(#mask0_501_505)">
<path d="M12 2C6.475 2 2 6.475 2 12C2 17.525 6.475 22 12 22C17.525 22 22 17.525 22 12C22 6.475 17.525 2 12 2ZM12 20C7.59 20 4 16.41 4 12C4 7.59 7.59 4 12 4C16.41 4 20 7.59 20 12C20 16.41 16.41 20 12 20ZM10.08 10.865C10.135 10.54 10.235 10.25 10.38 9.995C10.525 9.74 10.725 9.535 10.97 9.38C11.205 9.235 11.5 9.155 11.865 9.15C12.105 9.155 12.325 9.195 12.515 9.28C12.72 9.37 12.89 9.49 13.035 9.64C13.18 9.79 13.29 9.97 13.37 10.17C13.45 10.37 13.495 10.585 13.505 10.81H15.295C15.28 10.34 15.185 9.91 15.02 9.52C14.855 9.13 14.615 8.795 14.315 8.51C14.015 8.225 13.655 8.01 13.235 7.855C12.815 7.7 12.35 7.62 11.84 7.62C11.19 7.62 10.625 7.73 10.145 7.955C9.665 8.18 9.265 8.485 8.945 8.875C8.625 9.265 8.385 9.715 8.23 10.23C8.075 10.745 8 11.29 8 11.865V12.14C8 12.72 8.08 13.265 8.235 13.78C8.39 14.295 8.63 14.745 8.95 15.13C9.27 15.515 9.67 15.82 10.155 16.045C10.64 16.27 11.205 16.38 11.855 16.38C12.325 16.38 12.765 16.305 13.175 16.15C13.585 15.995 13.945 15.785 14.255 15.515C14.565 15.245 14.815 14.935 14.995 14.575C15.175 14.215 15.28 13.835 15.295 13.425H13.505C13.495 13.635 13.445 13.825 13.355 14.005C13.265 14.185 13.145 14.335 12.995 14.46C12.845 14.585 12.67 14.685 12.47 14.755C12.28 14.82 12.08 14.855 11.865 14.855C11.505 14.845 11.21 14.77 10.97 14.62C10.72 14.46 10.52 14.255 10.375 14C10.23 13.745 10.13 13.455 10.075 13.125C10.02 12.795 10 12.475 10 12.14V11.865C10 11.525 10.025 11.19 10.08 10.865Z" fill="white"/>
</g>
</g>
<defs>
<clipPath id="clip0_501_505">
<rect width="24" height="24" fill="white"/>
</clipPath>
</defs>
</svg>
