<svg width="50" height="51" viewBox="0 0 50 51" fill="none" xmlns="http://www.w3.org/2000/svg">
<g clip-path="url(#clip0_33_286)">
<path d="M31.3 8.7577L31.1 8.7077C30.75 8.7077 30.4 9.0077 30.4 9.3577L30.3 11.8577C30.3 12.1577 30.4501 12.4077 30.7001 12.5077C34.5501 14.0577 37.6 17.2077 39 21.1577C39.1 21.4077 39.35 21.6077 39.6 21.6077L42.1501 21.7077C42.3501 21.7077 42.6 21.6077 42.7001 21.4577C42.85 21.3077 42.9 21.0577 42.8 20.8577C41.1 15.2077 36.8 10.7077 31.3 8.7577Z" fill="white"/>
<path d="M32.25 1.60773C31.9 1.60773 31.5499 1.85773 31.5499 2.25773L31.45 4.70773C31.45 5.00773 31.65 5.30773 31.95 5.35773C39.05 7.50773 44.55 13.3077 46.25 20.5577C46.3 20.8577 46.5499 21.0577 46.8499 21.0577L49.2999 21.1577C49.5 21.1577 49.6999 21.0577 49.8499 20.9077C49.9999 20.7577 50.0499 20.5577 50 20.3577C48.15 11.3577 41.25 4.00773 32.4 1.65773L32.25 1.60773Z" fill="white"/>
<path d="M19.3 18.1577L7.55 6.3577C7.45 6.2577 7.3 6.2077 7.2 6.2077C7.05 6.2077 6.95 6.2577 6.85 6.3577L0.15 13.0077C0.05 13.1077 0 13.2077 0 13.3577C0 13.5077 0.05 13.6077 0.15 13.7077L12.1 25.6577C12.2 25.7577 12.35 25.8077 12.45 25.8077C12.6 25.8077 12.75 25.7577 12.8 25.6577L14.65 23.8077L15.15 24.3077C15.3 22.8077 15.85 21.4077 16.75 20.2077L12.45 24.5577L10.6 22.7077L8.65 20.7577L6.8 18.9077L5 17.0577L3.15 15.2077L1.25 13.3077L7.15 7.4077L9.05 9.3077L10.9 11.1577L12.8 13.0577L14.65 14.9077L16.6 16.8577L18.45 18.7077C18.85 18.4077 18.9 18.3577 19.3 18.1577Z" fill="white"/>
<path d="M27.0499 34.9077C26.4999 35.0577 25.8999 35.1077 25.3499 35.1077L23.7999 36.6577C23.6999 36.7577 23.6499 36.9077 23.6499 37.0077C23.6499 37.1577 23.6999 37.2577 23.7999 37.3577L35.7499 49.3077C35.8499 49.4077 35.9999 49.4577 36.0999 49.4577C36.2499 49.4577 36.3499 49.4077 36.4499 49.3077L43.0999 42.6577C43.1999 42.5577 43.2499 42.4077 43.2499 42.3077C43.2499 42.2077 43.1999 42.0577 43.0999 41.9577L32.0999 30.9577C31.9499 31.2577 31.7499 31.6077 31.5499 31.9077L32.6499 33.0077L34.5999 34.9577L36.4499 36.8077L38.3499 38.7077L39.2499 39.6077L40.1499 40.5077L42.0499 42.4077L36.1499 48.2077L34.2499 46.3077L32.3999 44.4577L30.4999 42.5577L28.6499 40.7077L26.6999 38.7577L24.8499 36.9077L26.3499 35.4077L27.0499 34.9077Z" fill="white"/>
<path d="M15.4 27.4077C13.55 29.4577 13.6 32.6577 15.6 34.6577C17.6 36.6577 20.75 36.7077 22.85 34.8577C21.15 34.4077 19.5 33.5077 18.1 32.1577C16.75 30.7577 15.85 29.1077 15.4 27.4077Z" fill="white"/>
<path d="M28.25 20.7577C28.2 20.6577 28.15 20.6077 28.15 20.5077L28.1 20.3077C28.05 20.1077 28 19.8577 28.05 19.6577C24.8 17.4577 20.6 17.5577 18.05 20.1077C15.05 23.0577 15.35 28.2077 18.7 31.5577C22.05 34.9077 27.15 35.2577 30.1 32.3077C32.7 29.7077 32.75 25.3577 30.4 22.1077C30.35 22.1077 30.3 22.1077 30.25 22.1077C30.1 22.1077 29.9 22.1077 29.75 22.0577C29.65 22.0577 29.6 22.0077 29.5 22.0077C29.4 21.9577 29.35 21.9077 29.25 21.9077L24.45 26.7077C24.15 27.0077 23.7 27.0077 23.4 26.7077C23.1 26.4077 23.1 25.9577 23.4 25.6577L28.25 20.7577Z" fill="white"/>
<path d="M29.1 18.5577C28.65 19.0077 28.5 19.6077 28.65 20.1577L28.7 20.3077C28.8 20.5577 28.9 20.7577 29.1 20.9577C29.3 21.1577 29.5 21.2577 29.75 21.3577L29.95 21.4077C30.05 21.4577 30.2 21.4577 30.3 21.4577C30.75 21.4577 31.15 21.3077 31.5 20.9577C32.15 20.3077 32.15 19.2077 31.5 18.5577C31.15 18.2077 30.75 18.0577 30.3 18.0577C29.85 18.1077 29.4 18.2577 29.1 18.5577Z" fill="white"/>
</g>
<defs>
<clipPath id="clip0_33_286">
<rect width="50" height="50" fill="white" transform="translate(0 0.557739)"/>
</clipPath>
</defs>
</svg>
